<svg xmlns="http://www.w3.org/2000/svg" width="22" height="22" viewBox="0 0 500.000000 500.000000" preserveAspectRatio="xMidYMid meet">

<g transform="translate(0.000000,500.000000) scale(0.100000,-0.100000)" fill="#787880" stroke="none">
<path d="M4163 4552 c-65 -23 -126 -65 -162 -111 -15 -20 -481 -735 -1035 -1588 -555 -854 -1011 -1553 -1015 -1553 -3 0 -234 211 -513 468 -579 535 -568 527 -713 527 -82 0 -97 -3 -157 -33 -82 -40 -149 -111 -178 -190 -18 -46 -21 -74 -18 -143 6 -158 -31 -117 748 -837 523 -484 699 -641 745 -665 55 -28 68 -31 155 -32 83 0 102 3 150 27 30 15 76 49 101 75 49 50 2295 3501 2332 3583 16 34 21 67 21 135 1 78 -3 98 -26 147 -34 73 -104 143 -176 175 -77 35 -186 41 -259 15z"/>
</g>
</svg>